<svg xmlns="http://www.w3.org/2000/svg" xmlns:xlink="http://www.w3.org/1999/xlink" viewBox="0,0,256,256" width="240px" height="240px" fill-rule="nonzero"><g fill="#df5c43" fill-rule="nonzero" stroke="none" stroke-width="1" stroke-linecap="butt" stroke-linejoin="miter" stroke-miterlimit="10" stroke-dasharray="" stroke-dashoffset="0" font-family="none" font-weight="none" font-size="none" text-anchor="none" style="mix-blend-mode: normal"><g transform="scale(16,16)"><path d="M9.614,1.5c0,0 2.504,3.16 1.219,6.719c0,0 -4.508,-3.195 -6.781,-5.5c0,0 2.828,4.098 3.844,4.938c0,0 -1.695,-0.902 -5.625,-4.25c0,0 4.535,5.895 6.656,7.125c0,0 -3.216,2.191 -7.927,-0.906c0,-0.001 2.45,4.374 7.677,4.374c2.348,0 3.055,-1.219 4.219,-1.219c1.211,0 1.938,1.219 1.938,1.219c0.707,-1.727 -1.063,-3.688 -1.063,-3.688c0,0 1.667,-5.249 -4.157,-8.812z"></path></g></g></svg>